HIERARCHY
ROOT Hips
{
  OFFSET -102.467 93.6631 130.069
  CHANNELS 6 Xposition Yposition Zposition Zrotation Xrotation Yrotation
  JOINT LeftUpLeg
  {
    OFFSET 8.64259 1.95398 -2.38835
    CHANNELS 3 Zrotation Xrotation Yrotation
    JOINT LeftLeg
    {
      OFFSET 43.7702 0 0
      CHANNELS 3 Zrotation Xrotation Yrotation
      JOINT LeftFoot
      {
        OFFSET 40.6238 0 0
        CHANNELS 3 Zrotation Xrotation Yrotation
        JOINT LeftToeBase
        {
          OFFSET 12.7242 0 0
          CHANNELS 3 Zrotation Xrotation Yrotation
          End Site
          {
            OFFSET 0 0 0
          }
        }
      }
    }
  }
  JOINT RightUpLeg
  {
    OFFSET -8.2249 1.95398 -2.59336
    CHANNELS 3 Zrotation Xrotation Yrotation
    JOINT RightLeg
    {
      OFFSET 43.5653 0 0
      CHANNELS 3 Zrotation Xrotation Yrotation
      JOINT RightFoot
      {
        OFFSET 40.6238 0 0
        CHANNELS 3 Zrotation Xrotation Yrotation
        JOINT RightToeBase
        {
          OFFSET 12.7242 0 0
          CHANNELS 3 Zrotation Xrotation Yrotation
          End Site
          {
            OFFSET 0 0 0
          }
        }
      }
    }
  }
  JOINT Spine
  {
    OFFSET 0.165834 0.87714 6.61349
    CHANNELS 3 Zrotation Xrotation Yrotation
    JOINT Spine1
    {
      OFFSET 7.38963 1.71661e-005 0
      CHANNELS 3 Zrotation Xrotation Yrotation
      JOINT Spine2
      {
        OFFSET 11.9445 1.14441e-005 0
        CHANNELS 3 Zrotation Xrotation Yrotation
        JOINT Spine3
        {
          OFFSET 14.7254 4.19617e-005 0
          CHANNELS 3 Zrotation Xrotation Yrotation
          JOINT Spine4
          {
            OFFSET 10.9679 0 0
            CHANNELS 3 Zrotation Xrotation Yrotation
            JOINT RightShoulder
            {
              OFFSET 2.46616 -1.6653 3.69651
              CHANNELS 3 Zrotation Xrotation Yrotation
              JOINT RightArm
              {
                OFFSET 13.0012 0 0
                CHANNELS 3 Zrotation Xrotation Yrotation
                JOINT RightForeArm
                {
                  OFFSET 28.7848 1.52588e-005 0
                  CHANNELS 3 Zrotation Xrotation Yrotation
                  JOINT RightHand
                  {
                    OFFSET 26.5688 1.52588e-005 0
                    CHANNELS 3 Zrotation Xrotation Yrotation
                    End Site
                    {
                      OFFSET 0 0 0
                    }
                  }
                }
              }
            }
            JOINT LeftShoulder
            {
              OFFSET 2.38034 -1.29275 -3.7523
              CHANNELS 3 Zrotation Xrotation Yrotation
              JOINT LeftArm
              {
                OFFSET 16.3182 6.10351e-005 0
                CHANNELS 3 Zrotation Xrotation Yrotation
                JOINT LeftForeArm
                {
                  OFFSET 27.0901 0 0
                  CHANNELS 3 Zrotation Xrotation Yrotation
                  JOINT LeftHand
                  {
                    OFFSET 24.5451 1.52588e-005 0
                    CHANNELS 3 Zrotation Xrotation Yrotation
                    End Site
                    {
                      OFFSET 0 0 0
                    }
                  }
                }
              }
            }
            JOINT Neck
            {
              OFFSET 5.0226 -0.0266342 0
              CHANNELS 3 Zrotation Xrotation Yrotation
              JOINT Head
              {
                OFFSET 6.69363 2.86102e-005 0
                CHANNELS 3 Zrotation Xrotation Yrotation
                End Site
                {
                  OFFSET 0 0 0
                }
              }
            }
          }
        }
      }
    }
  }
}
MOTION
Frames:	6
Frame Time:	0.0416667
264.489 89.6159 258.868 -97.7863 60.3854 -81.3309 -177.146 2.78215 69.5443 -102.64 37.8191 12.9894 -176.601 54.9062 166.645 21.9981 -3.14488 -149.531 148.901 7.75273 73.4521 2.60725 -6.22976 45.4498 38.7079 8.06595 42.1529 61.686 82.4302 148.966 4.47006 5.99502 -88.6599 14.8814 9.50984 1.2968 3.24534 9.55761 0.873153 -19.5292 8.67738 4.11534 0.483468 8.67741 4.11535 143.705 -24.6376 -1.02945 49.9318 -60.917 31.0557 -6.27035 18.8442 -94.6056 14.9658 16.4268 88.0547 -48.2565 -50.2985 140.52 35.1791 36.0684 -73.9152 15.7942 2.7123 -65.7578 6.12159 1.96493 22.7912 -76.2415 -0.157057 -29.6292 39.893 -18.678 2.16157 
265.407 89.2784 259.829 -97.4557 60.4788 -81.9159 -177.905 2.09388 68.4655 -101.627 37.7049 12.9955 -176.307 54.8123 167.35 22.3037 -5.2078 -149.704 149.936 10.7104 74.2463 -4.72787 -4.04663 43.751 39.7147 8.99433 45.2241 -157.761 20.3675 23.5571 4.46773 5.9964 -88.6244 14.8754 9.52265 1.36702 3.23935 9.5735 0.942721 -19.5343 8.66853 4.18602 0.478362 8.66853 4.18602 143.727 -24.6718 -1.02974 48.4176 -61.0793 28.7043 -27.1918 18.8582 -83.0695 15.0608 40.2662 65.0014 -48.0811 -50.473 140.685 37.264 35.6514 -74.0046 15.4174 1.59424 -66.4458 6.63701 1.96331 21.2739 -76.4935 -0.49612 -29.6196 40.2286 -19.0386 2.28293 
268.014 88.3204 262.563 -96.5122 60.7352 -83.5965 -179.782 -0.317578 64.05 -99.4223 35.7646 15.1563 -176.714 54.7881 171.352 23.231 -11.5484 -149.989 152.644 21.4096 79.8984 -24.7656 0.238932 31.1214 42.7866 16.7222 54.669 -150.902 -23.3976 30.8061 4.46025 6.00185 -88.5221 14.8548 9.55861 1.56982 3.21888 9.61838 1.14373 -19.5519 8.64204 4.38982 0.460747 8.64203 4.38981 143.798 -24.7833 -1.03066 44.0733 -61.2914 22.0326 -41.3639 6.54252 -69.2958 -127.507 22.2085 -29.5916 -47.5746 -50.972 141.158 43.3376 34.4123 -73.8249 14.0236 -1.92279 -68.879 8.10915 1.95211 17.636 -77.3125 -1.6399 -29.5895 41.2972 -20.239 2.68924 
272.072 86.7717 266.801 -95.0307 61.1113 -86.2639 177.501 -4.78844 55.0737 -96.9002 29.9904 21.972 -179.654 55.1663 -179.304 24.9948 -22.7922 -149.69 156.473 30.1168 89.5925 -33.8168 10.4098 14.361 37.177 27.6528 65.5136 -159.276 -17.5353 27.8085 4.44724 6.01426 -88.3592 14.8141 9.61363 1.89424 3.17828 9.68761 1.4654 -19.5873 8.59725 4.71498 0.425347 8.59723 4.71496 143.933 -24.9887 -1.0317 37.5298 -60.9232 12.0068 4.52684 15.9595 -74.6921 151.961 7.54547 -2.03667 -46.7593 -51.7584 141.915 53.0047 32.4569 -71.8041 10.8602 -8.23044 -74.4997 10.3561 1.92192 13.5318 -78.8832 -3.93464 -29.5533 43.3038 -22.613 3.48269 
277.304 84.5325 272.198 -93.0849 61.5598 -89.8164 167.631 -21.9244 30.724 -85.6844 9.87828 55.6218 154.798 51.334 -139.631 28.6628 -39.4219 -147.092 164.184 35.865 94.0714 -29.8933 22.1704 4.17061 26.9244 33.8729 71.4801 -167.101 -7.24245 26.1626 4.42782 6.03708 -88.1411 14.7467 9.68311 2.33063 3.1108 9.77618 1.89833 -19.6465 8.53275 5.15082 0.366146 8.53275 5.15081 144.149 -25.3056 -1.02221 30.1971 -59.347 0.406374 -46.7686 -14.2064 -66.7774 139.812 -49.9748 -24.1152 -45.6476 -52.798 142.941 64.5574 30.3447 -64.8362 4.58955 -16.0095 -86.0541 13.1142 1.88303 10.0684 -81.3906 -7.72352 -29.5934 46.4456 -26.5241 4.70326 
283.35 81.4675 278.303 -90.7437 62.0334 -94.1567 145.316 -34.0012 12.9007 -74.4354 16.894 82.9467 128.577 55.2907 -124.949 40.3781 -60.6776 -135.226 176.447 39.2157 96.06 -13.3545 32.2865 -10.8005 14.4119 36.9902 73.7073 -173.222 2.42003 25.9301 4.40095 6.07296 -87.8732 14.6469 9.76208 2.8698 3.01072 9.87882 2.43354 -19.7344 8.44668 5.68702 0.278249 8.4467 5.68702 144.462 -25.7504 -0.993031 23.8472 -56.3091 -10.657 -83.0293 -35.0797 -83.7379 66.4312 -60.4791 -87.7202 -44.2429 -54.0602 144.225 73.3448 27.3836 -49.4951 -5.89672 -18.6154 -105.95 16.16 1.86368 7.56245 -84.9351 -13.1509 -29.8977 50.684 -32.2123 6.27933 
